<svg width="2334" height="1128" viewBox="0 0 2334 1128" fill="none" xmlns="http://www.w3.org/2000/svg">
<ellipse cx="487.5" cy="94" rx="97.5" ry="94" fill="#F4A460"/>
<ellipse cx="681.5" cy="94" rx="97.5" ry="94" fill="#F4A460"/>
<ellipse cx="1461.5" cy="94" rx="97.5" ry="94" fill="#F4A460"/>
<ellipse cx="1655.5" cy="94" rx="97.5" ry="94" fill="#F4A460"/>
<ellipse cx="1850.5" cy="94" rx="97.5" ry="94" fill="#F4A460"/>
<ellipse cx="2041.5" cy="94" rx="97.5" ry="94" fill="#F4A460"/>
<ellipse cx="2236.5" cy="94" rx="97.5" ry="94" fill="#F4A460"/>
<ellipse cx="2236.5" cy="1034" rx="97.5" ry="94" fill="#F4A460"/>
<ellipse cx="1266.5" cy="94" rx="97.5" ry="94" fill="#F4A460"/>
<ellipse cx="1071.5" cy="94" rx="97.5" ry="94" fill="#F4A460"/>
<ellipse cx="876.5" cy="94" rx="97.5" ry="94" fill="#F4A460"/>
<rect y="94" width="2334" height="940" fill="#F4A460"/>
<ellipse cx="292.5" cy="94" rx="97.5" ry="94" fill="#F4A460"/>
<ellipse cx="97.5" cy="94" rx="97.5" ry="94" fill="#F4A460"/>
<ellipse cx="487.5" cy="1034" rx="97.5" ry="94" fill="#F4A460"/>
<ellipse cx="681.5" cy="1034" rx="97.5" ry="94" fill="#F4A460"/>
<ellipse cx="1461.5" cy="1034" rx="97.5" ry="94" fill="#F4A460"/>
<ellipse cx="1655.5" cy="1034" rx="97.5" ry="94" fill="#F4A460"/>
<ellipse cx="1850.5" cy="1034" rx="97.5" ry="94" fill="#F4A460"/>
<ellipse cx="2041.5" cy="1034" rx="97.5" ry="94" fill="#F4A460"/>
<ellipse cx="1266.5" cy="1034" rx="97.5" ry="94" fill="#F4A460"/>
<ellipse cx="1071.5" cy="1034" rx="97.5" ry="94" fill="#F4A460"/>
<ellipse cx="876.5" cy="1034" rx="97.5" ry="94" fill="#F4A460"/>
<ellipse cx="292.5" cy="1034" rx="97.5" ry="94" fill="#F4A460"/>
<ellipse cx="97.5" cy="1034" rx="97.5" ry="94" fill="#F4A460"/>
</svg>
